<svg width="20" height="19" viewBox="0 0 20 19" fill="none" xmlns="http://www.w3.org/2000/svg">
<path d="M6.45605 15.1982C5.44772 15.1982 4.63189 16.0232 4.63189 17.0315C4.63189 18.0398 5.44772 18.8648 6.45605 18.8648C7.46439 18.8648 8.28939 18.0398 8.28939 17.0315C8.28939 16.0232 7.46439 15.1982 6.45605 15.1982ZM0.956055 0.531494V2.36483H2.78939L6.08939 9.32233L4.85189 11.5682C4.70522 11.8248 4.62272 12.1273 4.62272 12.4482C4.62272 13.4565 5.44772 14.2815 6.45605 14.2815H17.4561V12.4482H6.84105C6.71272 12.4482 6.61189 12.3473 6.61189 12.219L6.63939 12.109L7.46439 10.6148H14.2936C14.9811 10.6148 15.5861 10.239 15.8977 9.67066L19.1794 3.72149C19.2527 3.59316 19.2894 3.43733 19.2894 3.28149C19.2894 2.77733 18.8769 2.36483 18.3727 2.36483H4.81522L3.95355 0.531494H0.956055ZM15.6227 15.1982C14.6144 15.1982 13.7986 16.0232 13.7986 17.0315C13.7986 18.0398 14.6144 18.8648 15.6227 18.8648C16.6311 18.8648 17.4561 18.0398 17.4561 17.0315C17.4561 16.0232 16.6311 15.1982 15.6227 15.1982Z" fill="white"/>
</svg>
