<svg width="21" height="15" viewBox="0 0 21 15" fill="none" xmlns="http://www.w3.org/2000/svg">
<path d="M7.03906 7.19824C8.96906 7.19824 10.5391 5.62824 10.5391 3.69824C10.5391 1.76824 8.96906 0.198242 7.03906 0.198242C5.10906 0.198242 3.53906 1.76824 3.53906 3.69824C3.53906 5.62824 5.10906 7.19824 7.03906 7.19824ZM7.03906 2.19824C7.86906 2.19824 8.53906 2.86824 8.53906 3.69824C8.53906 4.52824 7.86906 5.19824 7.03906 5.19824C6.20906 5.19824 5.53906 4.52824 5.53906 3.69824C5.53906 2.86824 6.20906 2.19824 7.03906 2.19824ZM7.03906 8.94824C4.69906 8.94824 0.0390625 10.1182 0.0390625 12.4482V14.1982H14.0391V12.4482C14.0391 10.1182 9.37906 8.94824 7.03906 8.94824ZM2.37906 12.1982C3.21906 11.6182 5.24906 10.9482 7.03906 10.9482C8.82906 10.9482 10.8591 11.6182 11.6991 12.1982H2.37906ZM14.0791 9.00824C15.2391 9.84824 16.0391 10.9682 16.0391 12.4482V14.1982H20.0391V12.4482C20.0391 10.4282 16.5391 9.27824 14.0791 9.00824ZM13.0391 7.19824C14.9691 7.19824 16.5391 5.62824 16.5391 3.69824C16.5391 1.76824 14.9691 0.198242 13.0391 0.198242C12.4991 0.198242 11.9991 0.328242 11.5391 0.548242C12.1691 1.43824 12.5391 2.52824 12.5391 3.69824C12.5391 4.86824 12.1691 5.95824 11.5391 6.84824C11.9991 7.06824 12.4991 7.19824 13.0391 7.19824Z" fill="#69817B"/>
</svg>
